PathFileType  4	(X/Y/Z) C:\Users\antoi\Documents\MyRepositories\mobilecap\ResultsAnalysis
DataRate	CameraRate	NumFrames	NumMarkers	Units	OrigDataRate	OrigDataStartFrame	OrigNumFrames
100.0	100.0	6	51	mm	100.0	96	153
Frame#	Time	r_knee			r_shank_antsup			r_ankle			r_calc			r_5meta			r_toe			L_knee			L_shank_antsup			L_ankle			L_calc			L_5meta			L_toe			r_sh2			r_sh3			r_sh4			L_sh2			L_sh3			r_thigh1			r_thigh2			r_thigh3			r_thigh4			r_thigh5			L_thigh1			L_thigh2			L_thigh3			L_thigh4			r.ASIS			r.PSIS			L.ASIS			L.PSIS			C7			R_Shoulder			L_Shoulder			R_Sternum			L_Sternum			R_humerus			R_elbow_med			R_elbow_lat			R_forearm			R_wrist_radius			R_wrist_ulna			L_humerus			L_elbow_med			L_elbow_lat			L_forearm			L_wrist_radius			L_wrist_ulna			R_HJC			L_HJC			R_HJC_reg			L_HJC_reg			
		X1	Y1	Z1	X2	Y2	Z2	X3	Y3	Z3	X4	Y4	Z4	X5	Y5	Z5	X6	Y6	Z6	X7	Y7	Z7	X8	Y8	Z8	X9	Y9	Z9	X10	Y10	Z10	X11	Y11	Z11	X12	Y12	Z12	X13	Y13	Z13	X14	Y14	Z14	X15	Y15	Z15	X16	Y16	Z16	X17	Y17	Z17	X18	Y18	Z18	X19	Y19	Z19	X20	Y20	Z20	X21	Y21	Z21	X22	Y22	Z22	X23	Y23	Z23	X24	Y24	Z24	X25	Y25	Z25	X26	Y26	Z26	X27	Y27	Z27	X28	Y28	Z28	X29	Y29	Z29	X30	Y30	Z30	X31	Y31	Z31	X32	Y32	Z32	X33	Y33	Z33	X34	Y34	Z34	X35	Y35	Z35	X36	Y36	Z36	X37	Y37	Z37	X38	Y38	Z38	X39	Y39	Z39	X40	Y40	Z40	X41	Y41	Z41	X42	Y42	Z42	X43	Y43	Z43	X44	Y44	Z44	X45	Y45	Z45	X46	Y46	Z46	X47	Y47	Z47	X48	Y48	Z48	X49	Y49	Z49	X50	Y50	Z50	X51	Y51	Z51	

96	0.95000000	1151.30886	635.18056	-64.84037	1104.73933	489.45940	-71.03602	840.45403	239.13084	-85.25381	785.02431	249.53641	-154.27848	910.31064	110.77684	-46.50537	963.19329	108.32529	-93.09875	988.63812	600.31890	-357.21632	1022.28808	399.02145	-317.14989	914.15212	107.21964	-305.97003	854.53198	74.38465	-241.90214	1051.42668	36.43716	-346.08929	1094.19300	63.73556	-286.69684	1036.93749	399.88322	-79.81637	1049.53087	526.21199	-35.57477	977.79000	438.94691	-35.45747	960.75719	406.48712	-378.83482	941.27308	293.48222	-355.89048	1093.47889	917.03179	-34.64085	1148.98695	820.43204	-37.84144	1104.52858	772.03223	-30.87197	994.64212	866.58279	-52.53724	1050.74579	763.22430	-50.16810	1051.82728	896.07580	-384.86429	1047.57401	761.36793	-371.03838	943.73815	900.09662	-396.65197	942.78217	762.52767	-394.63214	1045.23246	1183.36630	-82.52775	860.34859	1203.97024	-173.38878	1046.82799	1172.35754	-362.77637	861.75856	1206.64853	-266.84084	933.12164	1703.83627	-238.23304	986.83748	1650.52353	-64.18739	990.53813	1659.50291	-411.29651	1058.59892	1602.60596	-205.12585	1063.09728	1602.60375	-262.68189	930.66938	1388.38055	15.70422	827.48310	1285.81561	-22.67949	836.17079	1310.01320	46.94620	936.49909	1119.16044	77.80194	975.42992	1030.63442	77.98115	946.10972	1027.54520	103.29708	977.73300	1364.25525	-470.42159	883.16037	1293.15824	-424.82443	905.93876	1288.88985	-498.18816	993.53048	1101.13346	-517.87695	1024.22016	1026.67389	-508.44419	999.58213	1026.94663	-532.94509	972.30024	1083.93383	-120.20183	966.32080	1081.34757	-317.57125	980.86262	1085.73397	-126.36849	983.65193	1091.03593	-311.37981	
97	0.96000000	1164.58631	637.59597	-65.23518	1123.46040	490.27094	-70.70693	869.53442	228.91483	-84.12102	813.30332	236.18560	-152.85932	945.71865	104.40377	-44.92628	998.63326	104.47386	-91.70714	990.43426	600.24696	-357.27105	1023.45955	399.01059	-317.27383	914.18516	107.46090	-305.93080	854.74668	74.54156	-241.81359	1051.43674	36.41518	-346.12672	1094.20693	63.57011	-286.71227	1059.11711	397.93045	-79.27770	1066.53672	524.71485	-35.51823	998.42910	434.67314	-35.07986	961.65757	406.54542	-378.89532	941.86824	293.60907	-355.85469	1104.43988	918.95060	-34.93247	1160.80887	822.77225	-38.27382	1116.79703	774.17536	-31.23835	1006.05470	867.62027	-52.32490	1063.00153	764.70837	-50.16143	1058.07184	895.33422	-384.54611	1052.07850	760.87347	-370.79165	950.13057	900.76297	-396.95599	947.30629	763.18827	-394.99338	1054.02118	1183.94975	-82.65001	869.26334	1204.52153	-173.53052	1055.95704	1172.32696	-362.92921	870.89353	1207.13127	-267.00218	943.18763	1704.25239	-238.19153	996.35773	1650.59964	-64.06318	1001.08489	1660.10374	-411.09665	1068.42582	1602.71764	-204.85766	1073.05534	1602.79613	-262.40770	939.01353	1388.61929	15.44546	835.67621	1286.31703	-23.28406	844.07227	1310.55706	46.34214	944.47267	1119.71695	77.47914	983.54498	1031.29956	77.84305	954.10237	1028.15640	102.92573	988.50520	1365.03539	-470.95680	893.70222	1293.80701	-426.05111	916.87146	1289.72022	-499.33688	1005.41676	1102.31314	-518.67632	1036.45240	1028.04064	-509.13195	1011.94735	1028.19656	-533.76895	981.08653	1084.50135	-120.12715	975.23575	1081.54319	-317.49513	989.58169	1086.07628	-126.57371	992.80705	1091.24249	-311.61913	
98	0.97000000	1177.18763	639.59339	-65.72510	1141.81721	490.82996	-70.53552	899.32544	218.22365	-82.97827	842.38864	222.31100	-151.41231	981.82735	97.94843	-43.54876	1034.60654	100.67456	-90.51067	992.29563	600.14266	-357.28002	1024.59978	398.96704	-317.33247	914.17591	107.70199	-305.87642	854.88239	74.74783	-241.73242	1051.44779	36.40872	-346.15210	1094.19207	63.37735	-286.72390	1081.39069	395.75089	-78.82368	1083.22892	522.69234	-35.46337	1019.17653	429.82700	-34.63444	962.61004	406.58089	-378.91745	942.47370	293.70786	-355.79457	1115.08732	920.46066	-35.26892	1172.00247	824.59676	-38.73022	1128.31247	775.78982	-31.67228	1016.96517	868.46391	-52.36696	1074.50968	765.80926	-50.33852	1064.33651	894.47972	-384.16315	1056.61398	760.28088	-370.45637	956.55322	901.32109	-397.24305	951.89939	763.77028	-395.31003	1062.84231	1184.28782	-82.70856	878.18514	1204.96152	-173.62833	1065.11198	1172.10220	-363.02003	880.05252	1207.50403	-267.11469	953.28368	1704.49952	-238.09121	1005.97170	1650.50344	-63.88863	1011.64476	1660.51909	-410.85382	1078.30940	1602.65834	-204.56541	1083.06273	1602.81966	-262.11702	947.45956	1388.68722	15.25977	843.93704	1286.65622	-23.78970	852.11390	1310.93127	45.84448	952.57583	1120.09566	77.20006	991.74666	1031.76574	77.70538	962.12918	1028.57031	102.56409	999.23435	1365.63747	-471.46117	904.16891	1294.30198	-427.25572	927.74984	1290.39679	-500.46960	1017.27079	1103.33976	-519.43216	1048.73270	1029.27390	-509.75230	1024.39268	1029.26580	-534.53837	989.82776	1084.87708	-120.01540	984.11536	1081.58327	-317.38193	998.24471	1086.24121	-126.72983	1001.93951	1091.27461	-311.80825	
99	0.98000000	1189.10959	641.15128	-66.31363	1159.76847	491.17876	-70.57212	929.80765	207.22353	-81.85110	872.27821	208.08066	-149.98653	1018.58096	91.62648	-42.33686	1071.04541	97.10562	-89.48314	994.26627	600.01031	-357.25773	1025.72355	398.87339	-317.33602	914.15625	107.91981	-305.80008	854.93936	74.98815	-241.65913	1051.46112	36.41098	-346.16878	1094.16471	63.16920	-286.74244	1103.69863	393.40997	-78.49662	1099.63056	520.18709	-35.41907	1040.00030	424.48417	-34.14551	963.65021	406.59628	-378.91971	943.13779	293.78736	-355.72974	1125.33139	921.54077	-35.62836	1182.54447	825.88454	-39.21572	1139.06595	776.88118	-32.17037	1027.34348	869.09197	-52.65276	1085.25331	766.52399	-50.69006	1070.62280	893.52994	-383.70527	1061.18489	759.58392	-370.05478	962.99036	901.76713	-397.50830	956.55504	764.27058	-395.57228	1071.70441	1184.38089	-82.69970	887.12820	1205.29013	-173.69259	1074.29812	1171.67653	-363.03755	889.24374	1207.77326	-267.18849	963.41938	1704.57644	-237.93558	1015.67453	1650.24220	-63.66576	1022.20805	1660.74888	-410.58042	1088.25346	1602.43355	-204.24978	1093.12199	1602.67637	-261.80837	956.02504	1388.59513	15.15044	852.28484	1286.84696	-24.20727	860.32614	1311.13666	45.45409	960.81071	1120.28898	76.95888	1000.04456	1032.04899	77.56672	970.23998	1028.78640	102.22483	1009.92149	1366.05848	-471.93269	914.58827	1294.62495	-428.43194	938.58106	1290.90383	-501.57068	1029.09234	1104.21070	-520.13869	1061.06071	1030.35813	-510.30134	1036.91571	1030.14754	-535.24735	998.52563	1085.06294	-119.86486	992.96749	1081.46533	-317.23029	1006.86886	1086.21915	-126.83448	1011.05464	1091.13544	-311.93955	
100	0.99000000	1200.34901	642.25178	-66.99192	1177.26976	491.34605	-70.84172	960.94212	196.09308	-80.77120	902.96024	193.67684	-148.61924	1055.90609	85.66537	-41.26795	1107.86843	93.94917	-88.61683	996.38981	599.85183	-357.22255	1026.86618	398.71672	-317.30882	914.16027	108.10237	-305.70417	854.93070	75.24657	-241.59507	1051.47766	36.41039	-346.17999	1094.15101	62.96646	-286.77667	1125.94012	390.96461	-78.33648	1115.75537	517.25699	-35.40286	1060.86213	418.75416	-33.64602	964.80354	406.59429	-378.92206	943.89544	293.85531	-355.67757	1135.09688	922.17446	-35.98149	1192.43074	826.62571	-39.72562	1149.06901	777.47135	-32.72740	1037.17747	869.48417	-53.15962	1095.23917	766.88080	-51.20473	1076.93569	892.50936	-383.16775	1065.80864	758.79392	-369.60811	969.44821	902.10116	-397.75060	961.27881	764.69048	-395.78607	1080.61354	1184.23362	-82.62613	896.11198	1205.50479	-173.72751	1083.51155	1171.05379	-362.97735	898.47136	1207.94240	-267.22977	973.60205	1704.48523	-237.72932	1025.46336	1649.82819	-63.39712	1032.77135	1660.79618	-410.28415	1098.26376	1602.05349	-203.91100	1103.23430	1602.37268	-261.47943	964.72714	1388.35431	15.11547	860.74856	1286.89585	-24.54641	868.72680	1311.17483	45.16672	969.17663	1120.29034	76.74993	1008.44855	1032.16964	77.42924	978.48998	1028.80901	101.92309	1020.56695	1366.29903	-472.37054	924.98220	1294.76840	-429.56762	949.36652	1291.23224	-502.62472	1040.88435	1104.92564	-520.79228	1073.42316	1031.28386	-510.77960	1049.48418	1030.84887	-535.89200	1007.18906	1085.06208	-119.67769	1001.79848	1081.19190	-317.04247	1015.47921	1086.00679	-126.88446	1020.14708	1090.83328	-312.00534	
101	1.00000000	1210.91662	642.88216	-67.73722	1194.28126	491.33652	-71.33698	992.67237	185.02328	-79.77322	934.40516	179.29598	-147.33144	1093.71111	80.28841	-40.34784	1144.97479	91.38069	-87.92873	998.70867	599.66535	-357.18943	1028.07363	398.48940	-317.27566	914.21115	108.24998	-305.59858	854.87897	75.50749	-241.54091	1051.49761	36.39325	-346.18606	1094.17989	62.79146	-286.82871	1148.00806	388.47028	-78.36750	1131.60914	513.96485	-35.43262	1081.72550	412.76862	-33.17162	966.09234	406.57429	-378.93968	944.76423	293.91427	-355.64872	1144.34450	922.35100	-36.29736	1201.68027	826.82023	-40.24853	1158.35011	777.58383	-33.33554	1046.47645	869.62370	-53.85635	1104.49389	766.91115	-51.86761	1083.28821	891.44016	-382.55088	1070.51450	757.93081	-369.13046	975.95815	902.31792	-397.96382	966.09478	765.03255	-395.96842	1089.57274	1183.85365	-82.49707	905.15346	1205.60135	-173.73248	1092.74175	1170.24878	-362.84353	907.73333	1208.01033	-267.24183	983.83673	1704.23221	-237.47680	1035.33776	1649.27596	-63.08471	1043.33759	1660.66703	-409.96725	1108.34387	1601.52928	-203.54801	1113.40214	1601.91822	-261.12690	973.57966	1387.97471	15.14811	869.35950	1286.80389	-24.81458	877.31947	1311.05042	44.97322	977.67438	1120.09910	76.56916	1016.96139	1032.13751	77.29667	986.91736	1028.64414	101.67206	1031.17245	1366.36391	-472.77394	935.36349	1294.73620	-430.64630	960.10371	1291.38258	-503.61712	1052.64944	1105.48524	-521.39002	1085.79115	1032.04787	-511.19356	1062.04155	1031.38852	-536.47105	1015.83166	1084.87812	-119.46104	1010.61263	1080.77046	-316.82561	1024.10077	1085.61008	-126.87775	1029.20402	1090.37972	-312.00065	
